<?xml version="1.0" ?><svg style="enable-background:new 0 0 24 24;" version="1.1" viewBox="0 0 24 24" xml:space="preserve" xmlns="http://www.w3.org/2000/svg" xmlns:xlink="http://www.w3.org/1999/xlink"><style type="text/css">
	.st0{opacity:0.2;fill:none;stroke:#000000;stroke-width:5.000000e-02;stroke-miterlimit:10;}
</style><g id="Layer_1"/><g id="Layer_2"><g><path d="M18,3H6C3.8,3,2,4.8,2,7v10c0,2.2,1.8,4,4,4h12c2.2,0,4-1.8,4-4V7C22,4.8,20.2,3,18,3z M20,17c0,1.1-0.9,2-2,2H6    c-1.1,0-2-0.9-2-2v-7h16V17z M20,8H4V7c0-1.1,0.9-2,2-2h12c1.1,0,2,0.9,2,2V8z"/><circle cx="10.9" cy="6.6" r="0.8"/><circle cx="8.3" cy="6.6" r="0.8"/><circle cx="5.8" cy="6.6" r="0.8"/></g></g></svg>